<?xml version="1.0" encoding="UTF-8" standalone="no"?>
<!-- Created with Inkscape (http://www.inkscape.org/) -->

<svg
   xmlns:dc="http://purl.org/dc/elements/1.1/"
   xmlns:cc="http://creativecommons.org/ns#"
   xmlns:rdf="http://www.w3.org/1999/02/22-rdf-syntax-ns#"
   xmlns:svg="http://www.w3.org/2000/svg"
   xmlns="http://www.w3.org/2000/svg"
   xmlns:sodipodi="http://sodipodi.sourceforge.net/DTD/sodipodi-0.dtd"
   xmlns:inkscape="http://www.inkscape.org/namespaces/inkscape"
   width="32px"
   height="32px"
   viewBox="0 0 32 32"
   version="1.1"
   id="SVGRoot"
   inkscape:version="0.92.3 (2405546, 2018-03-11)"
   sodipodi:docname="favicon.svg">
  <sodipodi:namedview
     id="base"
     pagecolor="#ffffff"
     bordercolor="#666666"
     borderopacity="1.0"
     inkscape:pageopacity="0.0"
     inkscape:pageshadow="2"
     inkscape:zoom="27.21875"
     inkscape:cx="16.000068"
     inkscape:cy="16.007376"
     inkscape:document-units="px"
     inkscape:current-layer="SVGRoot"
     showgrid="false"
     inkscape:window-width="1920"
     inkscape:window-height="1057"
     inkscape:window-x="1912"
     inkscape:window-y="-8"
     inkscape:window-maximized="1"
     inkscape:grid-bbox="true"
     borderlayer="true"
     inkscape:pagecheckerboard="true"
     inkscape:showpageshadow="false" />
  <defs
     id="defs1366" />
  <metadata
     id="metadata1369">
    <rdf:RDF>
      <cc:Work
         rdf:about="">
        <dc:format>image/svg+xml</dc:format>
        <dc:type
           rdf:resource="http://purl.org/dc/dcmitype/StillImage" />
        <dc:title></dc:title>
      </cc:Work>
    </rdf:RDF>
  </metadata>
  <g
     id="layer1"
     inkscape:groupmode="layer"
     inkscape:label="レイヤー 1"
     style="display:none">
    <g
       aria-label="stc"
       style="font-style:normal;font-variant:normal;font-weight:900;font-stretch:normal;font-size:330.66665649px;line-height:1.25;font-family:'noto sans cjk jp';-inkscape-font-specification:'noto sans cjk jp Heavy';letter-spacing:0px;word-spacing:0px;fill:#000000;fill-opacity:1;stroke:none"
       id="text1931">
      <path
         d="m 6.3046875,10.460938 v 0.898437 q -0.484375,0.132813 -0.7421875,0.414063 -0.25,0.273437 -0.25,0.679687 0,0.390625 0.2109375,0.6875 0.2109375,0.289063 0.6875,0.554688 0.328125,0.179687 1.484375,0.6875 0.703125,0.304687 1.0859375,0.554687 0.390625,0.242188 0.734375,0.609375 0.921875,0.96875 0.921875,2.304687 0,1.007813 -0.5,1.84375 -0.5,0.835938 -1.375,1.3125 -0.46875,0.25 -1.03125,0.390625 -0.5546875,0.148438 -1.0390625,0.148438 V 20.65625 Q 7.171875,20.492187 7.46875,20.203125 7.7734375,19.90625 7.7734375,19.40625 q 0,-0.523438 -0.46875,-0.921875 -0.3125,-0.257813 -1.1875,-0.640625 Q 5.15625,17.421875 4.796875,17.242187 4.4453125,17.0625 4.1171875,16.820312 q -1.46875,-1.046874 -1.46875,-2.789062 0,-0.890625 0.3671875,-1.640625 0.3671875,-0.757812 1.0234375,-1.21875 0.9140625,-0.640625 2.265625,-0.710937 z M 6.921875,11.359375 V 10.5 q 0.46875,0.03125 0.8125,0.125 0.34375,0.08594 0.9765625,0.351563 0.15625,0.0625 0.2578125,0.0625 0.1484375,0 0.21875,-0.101563 l 0.171875,-0.226562 q 0.125,-0.171875 0.3046875,-0.171875 0.2109375,0 0.3046875,0.15625 0.101563,0.148437 0.101563,0.476562 V 13.75 q 0,0.226563 -0.132813,0.375 -0.125,0.140625 -0.328125,0.140625 -0.15625,0 -0.2890625,-0.101562 Q 9.25,14.101563 9.203125,14.015625 9.1640625,13.921875 9.125,13.710938 9.0390625,13.328125 8.828125,12.921875 8.6171875,12.515625 8.3359375,12.195313 7.7734375,11.5625 6.921875,11.359375 Z M 5.8984375,20.65625 v 0.890625 q -0.640625,0 -1.4140625,-0.367188 Q 4.1953125,21.046875 4.0859375,21.007812 3.9765625,20.96875 3.875,20.96875 q -0.15625,0 -0.234375,0.05469 -0.078125,0.04687 -0.25,0.25 -0.140625,0.171875 -0.3046875,0.171875 -0.4375,0 -0.4375,-0.671875 v -2.84375 q 0,-0.21875 0.125,-0.367187 0.125,-0.15625 0.3125,-0.164063 0.171875,-0.0078 0.265625,0.101563 0.1015625,0.101562 0.171875,0.367187 0.1796875,0.671875 0.515625,1.257813 0.34375,0.585937 0.796875,0.992187 0.4609375,0.421875 1.0625,0.539063 z"
         style="font-style:normal;font-variant:normal;font-weight:bold;font-stretch:normal;font-size:16px;font-family:Stencil;-inkscape-font-specification:'Stencil Bold'"
         id="path1941"
         inkscape:connector-curvature="0" />
      <path
         d="m 17.507812,10.671875 v 9.179687 q 0,0.304688 0.117188,0.4375 0.0625,0.07813 0.117187,0.101563 0.05469,0.01563 0.359375,0.09375 0.375,0.08594 0.375,0.429687 0,0.203125 -0.203125,0.328125 -0.148437,0.09375 -0.5,0.09375 H 17.515625 14.03125 13.773438 q -0.34375,0 -0.523438,-0.101562 -0.171875,-0.109375 -0.171875,-0.320313 0,-0.34375 0.375,-0.429687 0.304688,-0.07813 0.359375,-0.09375 0.05469,-0.02344 0.109375,-0.101563 0.117188,-0.132812 0.117188,-0.4375 v -9.179687 z m 2.703125,0 v 3.195313 q 0,0.226562 -0.132812,0.367187 Q 19.953125,14.375 19.75,14.375 q -0.195313,0 -0.328125,-0.125 -0.125,-0.132812 -0.164063,-0.359375 l -0.07813,-0.476562 Q 19.0625,12.6875 18.726562,12.15625 18.515625,11.828125 18.15625,11.617188 v -0.945313 z m -8.859374,0 h 2.054687 v 0.945313 Q 13.039063,11.828125 12.835938,12.15625 12.5,12.6875 12.382813,13.414063 l -0.07813,0.476562 q -0.03906,0.226563 -0.171875,0.359375 -0.125,0.125 -0.320313,0.125 -0.203125,0 -0.335937,-0.140625 -0.125,-0.140625 -0.125,-0.367187 z"
         style="font-style:normal;font-variant:normal;font-weight:bold;font-stretch:normal;font-size:16px;font-family:Stencil;-inkscape-font-specification:'Stencil Bold'"
         id="path1943"
         inkscape:connector-curvature="0" />
      <path
         d="m 25.46875,10.460938 v 0.945312 q -0.460938,0.07031 -0.6875,0.40625 -0.226563,0.335938 -0.226563,0.960938 v 6.453124 0.335938 q 0,0.179687 0.07031,0.382812 0.07813,0.195313 0.195312,0.335938 0.125,0.15625 0.265625,0.226562 0.140625,0.0625 0.382813,0.08594 v 0.953125 q -1.515625,0 -2.632813,-0.789063 -0.984375,-0.695312 -1.484375,-1.867187 -0.5,-1.179688 -0.5,-2.789063 0,-1.179687 0.320313,-2.195312 0.328125,-1.023437 0.945312,-1.773437 0.625,-0.757813 1.492188,-1.21875 0.875,-0.460938 1.679687,-0.460938 z m 0.617187,0.953125 V 10.46875 q 0.382813,0.0625 0.617188,0.132813 0.242187,0.07031 0.867187,0.296875 0.398438,0.140625 0.53125,0.140625 0.226563,0 0.34375,-0.203125 l 0.101563,-0.1875 q 0.09375,-0.1875 0.351562,-0.1875 0.210938,0 0.320313,0.125 0.117187,0.125 0.117187,0.367187 v 3.25 q 0,0.3125 -0.140625,0.453125 -0.140625,0.140625 -0.320312,0.140625 -0.1875,0 -0.304688,-0.117187 -0.109375,-0.125 -0.179687,-0.398438 -0.164063,-0.617187 -0.320313,-0.96875 -0.335937,-0.742187 -0.765625,-1.203125 -0.289062,-0.3125 -0.578125,-0.476562 -0.289062,-0.171875 -0.640625,-0.21875 z m 0.02344,10.132812 V 20.59375 q 0.609375,-0.04687 1.28125,-0.460938 Q 27.75,19.90625 28.03125,19.53125 q 0.28125,-0.382813 0.421875,-0.835938 0.07813,-0.25 0.179687,-0.351562 0.109375,-0.109375 0.28125,-0.109375 0.1875,0 0.3125,0.140625 0.125,0.140625 0.125,0.351562 0,0.351563 -0.273437,0.851563 -0.265625,0.5 -0.6875,0.921875 -0.515625,0.515625 -1.0625,0.765625 -0.539063,0.25 -1.21875,0.28125 z"
         style="font-style:normal;font-variant:normal;font-weight:bold;font-stretch:normal;font-size:16px;font-family:Stencil;-inkscape-font-specification:'Stencil Bold'"
         id="path1945"
         inkscape:connector-curvature="0" />
    </g>
    <path
       style="fill:none;stroke:#000000;stroke-width:1.00783527px;stroke-linecap:butt;stroke-linejoin:miter;stroke-opacity:1"
       d="M 0.8,23.1 H 33.614174"
       id="path1937"
       inkscape:connector-curvature="0" />
    <path
       style="fill:none;stroke:#000000;stroke-width:1.00988054px;stroke-linecap:butt;stroke-linejoin:miter;stroke-opacity:1"
       d="M 1.3,23.6 V -1.9331837"
       id="path1939"
       inkscape:connector-curvature="0" />
  </g>
  <path
     style="fill:#0d1b2f;fill-opacity:1;stroke:#0d1b2f;stroke-width:0.5;stroke-linecap:round;stroke-linejoin:round;stroke-miterlimit:4;stroke-dasharray:none;stroke-dashoffset:188.97637939;stroke-opacity:1"
     d="m 23.580628,13.743658 h 4.365725 v 4.365725 l -2.182862,-0.999862 -2.182863,0.999862 z"
     id="rect1962"
     inkscape:connector-curvature="0"
     sodipodi:nodetypes="cccccc" />
  <path
     style="fill:#0d1b2f;fill-opacity:1;stroke:#0d1b2f;stroke-width:0.5;stroke-linecap:round;stroke-linejoin:round;stroke-miterlimit:4;stroke-dasharray:none;stroke-dashoffset:188.97637939;stroke-opacity:1"
     d="m 29.418167,10.926521 a 3.6546762,3.6546762 0 0 1 -3.654676,3.654676 3.6546762,3.6546762 0 0 1 -3.654676,-3.654676 3.6546762,3.6546762 0 0 1 3.654676,-3.6546759 3.6546762,3.6546762 0 0 1 3.654676,3.6546759 z"
     id="path1956"
     inkscape:connector-curvature="0" />
  <path
     id="path1987"
     d="m 21.72924,20.328861 a 2.7410074,2.7410072 0 0 1 -2.741008,2.741007 2.7410074,2.7410072 0 0 1 -2.741007,-2.741007 2.7410074,2.7410072 0 0 1 2.741007,-2.741008 2.7410074,2.7410072 0 0 1 2.741008,2.741008 z"
     style="fill:#0d1b2f;fill-opacity:1;stroke:#0d1b2f;stroke-width:0.5;stroke-linecap:round;stroke-linejoin:round;stroke-miterlimit:4;stroke-dasharray:none;stroke-dashoffset:188.97637939;stroke-opacity:1"
     inkscape:connector-curvature="0" />
  <path
     inkscape:connector-curvature="0"
     style="fill:#0d1b2f;fill-opacity:1;stroke:#0d1b2f;stroke-width:0.5;stroke-linecap:round;stroke-linejoin:round;stroke-miterlimit:4;stroke-dasharray:none;stroke-dashoffset:188.97637939;stroke-opacity:1"
     d="M 9.409134,16.472446 A 2.7410074,2.7410072 0 0 1 6.668126,19.213453 2.7410074,2.7410072 0 0 1 3.927119,16.472446 2.7410074,2.7410072 0 0 1 6.668126,13.731438 2.7410074,2.7410072 0 0 1 9.409134,16.472446 Z"
     id="path1993" />
</svg>
